Coordinates
version=1
nRows=10
nColumns=40
inDegrees=yes

Units are S.I. units (second, meters, Newtons, ...)
Angles are in degrees.

endheader
time	pelvis_tilt	pelvis_list	pelvis_rotation	pelvis_tx	pelvis_ty	pelvis_tz	hip_flexion_r	hip_adduction_r	hip_rotation_r	knee_angle_r	knee_angle_r_beta	ankle_angle_r	subtalar_angle_r	mtp_angle_r	hip_flexion_l	hip_adduction_l	hip_rotation_l	knee_angle_l	knee_angle_l_beta	ankle_angle_l	subtalar_angle_l	mtp_angle_l	lumbar_extension	lumbar_bending	lumbar_rotation	arm_flex_r	arm_add_r	arm_rot_r	elbow_flex_r	pro_sup_r	wrist_flex_r	wrist_dev_r	arm_flex_l	arm_add_l	arm_rot_l	elbow_flex_l	pro_sup_l	wrist_flex_l	wrist_dev_l
     40.87742857	     -3.87327948	     -4.53547929	     -4.09731450	      0.94882907	      0.93689229	      0.43616159	     35.38511598	     -0.71714957	     -3.72364663	     55.55977919	     55.55977919	      1.41472536	    -13.19661127	      0.67105063	      7.02434765	     -3.97369043	     -7.16999693	     15.52863372	     15.52863372	     14.28235135	    -10.46788887	     -0.29235642	     -8.83211170	      6.77404244	      3.11668476	     -4.07059313	    -12.66280916	     -3.10273329	     24.00373443	     46.75528168	      0.00000000	      0.00000000	     20.62220942	    -14.58993167	     -5.62236555	     70.39320132	     46.84183346	      0.00000000	      0.00000000
     40.88985714	     -3.83119866	     -4.54687197	     -4.32151809	      0.94863408	      0.93659695	      0.43637302	     35.28711484	     -0.57317173	     -4.00692180	     51.80420974	     51.80420974	      1.59126739	    -12.00895119	      0.10235325	      6.18928986	     -3.92870720	     -7.40802453	     15.07995020	     15.07995020	     14.55240411	    -10.30302524	     -0.46268692	     -9.04034565	      6.72669872	      3.31702594	     -5.32407781	    -12.60188858	     -3.07007649	     23.57530189	     46.75643954	      0.00000000	      0.00000000	     20.98448850	    -14.52731983	     -6.39306309	     73.29084588	     46.95917293	      0.00000000	      0.00000000
     40.90228571	     -4.07630926	     -4.68386025	     -4.45214308	      0.94834066	      0.93583305	      0.43668185	     35.28757192	     -0.27972604	     -4.43674145	     47.68685534	     47.68685534	      1.83734432	    -10.69755905	      0.19740588	      5.80954468	     -4.05604155	     -7.44331427	     14.87624073	     14.87624073	     14.87013383	    -10.28530100	     -0.60200555	     -8.81622041	      6.89978907	      3.11174158	     -6.35872825	    -12.49453657	     -3.05433084	     23.30778051	     46.75507061	      0.00000000	      0.00000000	     21.53803863	    -14.84566801	     -6.74877720	     74.30142948	     47.00680947	      0.00000000	      0.00000000
     40.91471429	     -4.06766675	     -4.80284031	     -4.55775420	      0.94836769	      0.93530143	      0.43694553	     34.75020318	     -0.07417645	     -5.02559576	     43.22384480	     43.22384480	      2.15203736	     -8.85999501	      0.00024996	      5.12084351	     -4.13913087	     -7.53305686	     14.64891775	     14.64891775	     15.19824741	    -10.21572238	     -0.75153028	     -8.91333324	      7.04244838	      3.14781654	     -7.44669436	    -12.55127355	     -3.05595665	     23.09431402	     46.75204161	      0.00000000	      0.00000000	     21.93509706	    -14.72583462	     -7.15201858	     76.01711351	     47.07356820	      0.00000000	      0.00000000
     40.92714286	     -4.14526794	     -4.85335742	     -4.66772507	      0.94843409	      0.93450711	      0.43740389	     34.14994419	      0.13121935	     -5.60488888	     38.57430975	     38.57430975	      2.40156560	     -6.82790741	     -0.13560989	      4.54357249	     -4.17034043	     -7.64287217	     14.45378507	     14.45378507	     15.52934307	    -10.13256037	     -0.90883441	     -8.91423507	      7.06316925	      3.14031613	     -8.47555987	    -12.52911489	     -3.07655632	     23.04259187	     46.74335088	      0.00000000	      0.00000000	     22.26246572	    -14.71209504	     -7.57162880	     77.68405913	     47.14077413	      0.00000000	      0.00000000
     40.93957143	     -4.25404345	     -5.00850870	     -4.76471145	      0.94872254	      0.93358962	      0.43806323	     33.33418389	      0.48958276	     -6.34340789	     33.70846537	     33.70846537	      2.60955596	     -4.57661911	     -0.04855306	      3.97694352	     -4.32759073	     -7.69989458	     14.25415207	     14.25415207	     15.87682719	    -10.05602392	     -1.04862396	     -8.88218468	      7.16456287	      3.12255548	     -9.41186168	    -12.48741141	     -3.11580210	     23.08807338	     46.73265301	      0.00000000	      0.00000000	     22.51236571	    -14.67194202	     -7.91868305	     79.21834473	     47.20013058	      0.00000000	      0.00000000
     40.95200000	     -4.27202055	     -4.98792774	     -4.83302040	      0.94907012	      0.93260871	      0.43866158	     32.35758044	      0.68133532	     -7.10062085	     28.94720445	     28.94720445	      2.65985909	     -2.11866698	      0.24217175	      3.36501722	     -4.28848099	     -7.79754575	     14.13027947	     14.13027947	     16.22270436	     -9.93283610	     -1.20091758	     -8.97999236	      7.13883446	      3.06657673	    -10.31294060	    -12.46526374	     -3.19505015	     23.28680021	     46.71830043	      0.00000000	      0.00000000	     22.66236271	    -14.65535407	     -8.27776935	     80.80042525	     47.26266701	      0.00000000	      0.00000000
     40.96442857	     -4.40664406	     -4.94332182	     -4.92274959	      0.94967061	      0.93125843	      0.43965198	     31.47678098	      0.96457539	     -7.83071017	     24.50200091	     24.50200091	      2.66757289	      0.01423913	      0.94233976	      2.85733362	     -4.25033513	     -7.90471076	     14.00628024	     14.00628024	     16.61367163	     -9.92163815	     -1.34871955	     -8.79715912	      6.98584399	      3.02191064	    -10.97711998	    -12.31127642	     -3.26017114	     23.47064053	     46.70610771	      0.00000000	      0.00000000	     22.85414958	    -14.69379458	     -8.50307418	     81.93828155	     47.30670105	      0.00000000	      0.00000000
     40.97685714	     -4.32898360	     -4.96803723	     -4.94013327	      0.95057667	      0.93011382	      0.44061080	     30.31645799	      1.24541465	     -8.92340436	     20.46518404	     20.46518404	      2.71948886	      2.46610493	      2.01731370	      2.08758946	     -4.27096168	     -7.95412336	     13.85938993	     13.85938993	     17.04958021	     -9.79194228	     -1.47730419	     -8.89046968	      6.93774029	      2.96335013	    -11.67135507	    -12.29984609	     -3.40733319	     23.81469982	     46.69274574	      0.00000000	      0.00000000	     22.84724608	    -14.65392153	     -8.70511116	     83.26183035	     47.35555788	      0.00000000	      0.00000000
     40.98928571	     -4.36674066	     -4.91940207	     -4.98420006	      0.95153655	      0.92873969	      0.44170870	     29.58920872	      1.42873083	    -10.12703827	     17.56014240	     17.56014240	      3.71184954	      4.88007708	      6.03798946	      1.45513639	     -4.23826332	     -8.09332902	     13.75521415	     13.75521415	     17.62982377	     -9.50588182	     -1.25101043	     -8.89589451	      6.80961563	      2.67969568	    -12.37537140	    -12.22993563	     -3.95994797	     25.17275813	     46.64769802	      0.00000000	      0.00000000	     22.44171678	    -14.71771864	     -9.24236356	     85.05700139	     47.51133541	      0.00000000	      0.00000000
